<mxfile host="Electron" modified="2023-08-29T03:42:38.010Z" agent="Mozilla/5.0 (Windows NT 10.0; Win64; x64) AppleWebKit/537.36 (KHTML, like Gecko) draw.io/21.6.5 Chrome/114.0.5735.243 Electron/25.3.1 Safari/537.36" etag="qcpU-y_7uP9fbER0oUdG" version="21.6.5" type="device">
  <diagram name="第 1 页" id="UpzA3Q8jag92hRXOgRv-">
    <mxGraphModel dx="1101" dy="744" grid="1" gridSize="10" guides="1" tooltips="1" connect="1" arrows="1" fold="1" page="1" pageScale="1" pageWidth="827" pageHeight="1169" math="0" shadow="0">
      <root>
        <mxCell id="0" />
        <mxCell id="1" parent="0" />
        <mxCell id="oOW-L5OWWit1w-jpv3Xd-5" value="" style="edgeStyle=orthogonalEdgeStyle;rounded=0;orthogonalLoop=1;jettySize=auto;html=1;entryX=0;entryY=0.5;entryDx=0;entryDy=0;" edge="1" parent="1" source="oOW-L5OWWit1w-jpv3Xd-1" target="oOW-L5OWWit1w-jpv3Xd-4">
          <mxGeometry relative="1" as="geometry" />
        </mxCell>
        <mxCell id="oOW-L5OWWit1w-jpv3Xd-10" style="edgeStyle=orthogonalEdgeStyle;rounded=0;orthogonalLoop=1;jettySize=auto;html=1;entryX=0;entryY=0.5;entryDx=0;entryDy=0;" edge="1" parent="1" source="oOW-L5OWWit1w-jpv3Xd-1" target="oOW-L5OWWit1w-jpv3Xd-6">
          <mxGeometry relative="1" as="geometry" />
        </mxCell>
        <mxCell id="oOW-L5OWWit1w-jpv3Xd-11" style="edgeStyle=orthogonalEdgeStyle;rounded=0;orthogonalLoop=1;jettySize=auto;html=1;entryX=0;entryY=0.5;entryDx=0;entryDy=0;" edge="1" parent="1" source="oOW-L5OWWit1w-jpv3Xd-1" target="oOW-L5OWWit1w-jpv3Xd-7">
          <mxGeometry relative="1" as="geometry" />
        </mxCell>
        <mxCell id="oOW-L5OWWit1w-jpv3Xd-12" style="edgeStyle=orthogonalEdgeStyle;rounded=0;orthogonalLoop=1;jettySize=auto;html=1;entryX=0;entryY=0.5;entryDx=0;entryDy=0;" edge="1" parent="1" source="oOW-L5OWWit1w-jpv3Xd-1" target="oOW-L5OWWit1w-jpv3Xd-8">
          <mxGeometry relative="1" as="geometry" />
        </mxCell>
        <mxCell id="oOW-L5OWWit1w-jpv3Xd-1" value="运行时数据区" style="rounded=0;whiteSpace=wrap;html=1;" vertex="1" parent="1">
          <mxGeometry x="40" y="290" width="120" height="60" as="geometry" />
        </mxCell>
        <mxCell id="oOW-L5OWWit1w-jpv3Xd-4" value="线程共享区域" style="rounded=0;whiteSpace=wrap;html=1;" vertex="1" parent="1">
          <mxGeometry x="240" y="220" width="120" height="60" as="geometry" />
        </mxCell>
        <mxCell id="oOW-L5OWWit1w-jpv3Xd-6" value="线程独享区域" style="rounded=0;whiteSpace=wrap;html=1;" vertex="1" parent="1">
          <mxGeometry x="240" y="80" width="120" height="60" as="geometry" />
        </mxCell>
        <mxCell id="oOW-L5OWWit1w-jpv3Xd-14" value="" style="edgeStyle=orthogonalEdgeStyle;rounded=0;orthogonalLoop=1;jettySize=auto;html=1;" edge="1" parent="1" source="oOW-L5OWWit1w-jpv3Xd-7" target="oOW-L5OWWit1w-jpv3Xd-13">
          <mxGeometry relative="1" as="geometry" />
        </mxCell>
        <mxCell id="oOW-L5OWWit1w-jpv3Xd-17" style="edgeStyle=orthogonalEdgeStyle;rounded=0;orthogonalLoop=1;jettySize=auto;html=1;entryX=0;entryY=0.5;entryDx=0;entryDy=0;" edge="1" parent="1" source="oOW-L5OWWit1w-jpv3Xd-7" target="oOW-L5OWWit1w-jpv3Xd-15">
          <mxGeometry relative="1" as="geometry" />
        </mxCell>
        <mxCell id="oOW-L5OWWit1w-jpv3Xd-18" style="edgeStyle=orthogonalEdgeStyle;rounded=0;orthogonalLoop=1;jettySize=auto;html=1;entryX=0;entryY=0.5;entryDx=0;entryDy=0;" edge="1" parent="1" source="oOW-L5OWWit1w-jpv3Xd-7" target="oOW-L5OWWit1w-jpv3Xd-16">
          <mxGeometry relative="1" as="geometry" />
        </mxCell>
        <mxCell id="oOW-L5OWWit1w-jpv3Xd-7" value="内存中对象" style="rounded=0;whiteSpace=wrap;html=1;" vertex="1" parent="1">
          <mxGeometry x="240" y="390" width="120" height="60" as="geometry" />
        </mxCell>
        <mxCell id="oOW-L5OWWit1w-jpv3Xd-8" value="内存泄漏" style="rounded=0;whiteSpace=wrap;html=1;" vertex="1" parent="1">
          <mxGeometry x="240" y="540" width="120" height="60" as="geometry" />
        </mxCell>
        <mxCell id="oOW-L5OWWit1w-jpv3Xd-13" value="对象生命周期" style="rounded=0;whiteSpace=wrap;html=1;" vertex="1" parent="1">
          <mxGeometry x="440" y="390" width="120" height="60" as="geometry" />
        </mxCell>
        <mxCell id="oOW-L5OWWit1w-jpv3Xd-15" value="创建对象" style="rounded=0;whiteSpace=wrap;html=1;" vertex="1" parent="1">
          <mxGeometry x="440" y="300" width="120" height="60" as="geometry" />
        </mxCell>
        <mxCell id="oOW-L5OWWit1w-jpv3Xd-16" value="对象大小" style="rounded=0;whiteSpace=wrap;html=1;" vertex="1" parent="1">
          <mxGeometry x="440" y="480" width="120" height="60" as="geometry" />
        </mxCell>
      </root>
    </mxGraphModel>
  </diagram>
</mxfile>
